<svg width="11" height="11" viewBox="0 0 11 11" fill="none" xmlns="http://www.w3.org/2000/svg">
<path d="M7.88906 8.8623L2.1377 3.11094C1.65645 3.7834 1.375 4.6084 1.375 5.5C1.375 7.77734 3.22266 9.625 5.5 9.625C6.3916 9.625 7.2166 9.34355 7.88906 8.8623ZM8.8623 7.88906C9.34355 7.2166 9.625 6.3916 9.625 5.5C9.625 3.22266 7.77734 1.375 5.5 1.375C4.6084 1.375 3.7834 1.65645 3.11094 2.1377L8.8623 7.88906ZM0 5.5C0 4.04131 0.579463 2.64236 1.61091 1.61091C2.64236 0.579463 4.04131 0 5.5 0C6.95869 0 8.35764 0.579463 9.38909 1.61091C10.4205 2.64236 11 4.04131 11 5.5C11 6.95869 10.4205 8.35764 9.38909 9.38909C8.35764 10.4205 6.95869 11 5.5 11C4.04131 11 2.64236 10.4205 1.61091 9.38909C0.579463 8.35764 0 6.95869 0 5.5Z" fill="black"/>
</svg>
