<svg width="158" height="66" viewBox="0 0 158 66" fill="none" xmlns="http://www.w3.org/2000/svg">
<path d="M30.6987 23.8456C31.2095 24.3256 31.4659 24.8922 31.4659 25.5442C31.4659 26.196 31.2095 26.7626 30.6987 27.2424C30.4435 27.4826 30.1513 27.6622 29.8247 27.7828C29.497 27.9024 29.1659 27.9624 28.8306 27.9624C28.4943 27.9624 28.172 27.9062 27.8603 27.7936C27.5484 27.6818 27.2724 27.5126 27.0339 27.2874C25.9952 26.3128 24.8414 25.5889 23.5726 25.1168C22.3017 24.6446 20.9881 24.4085 19.6315 24.4085C18.2255 24.4085 16.8951 24.6602 15.6419 25.1615C14.3878 25.6647 13.2944 26.3546 12.36 27.232C11.4254 28.1092 10.683 29.1402 10.1322 30.3244C9.58067 31.5098 9.30482 32.7847 9.30482 34.1489C9.30482 35.4539 9.56506 36.6956 10.0835 37.8721C10.6019 39.0497 11.3211 40.0846 12.2401 40.9765C13.1582 41.8695 14.2448 42.5813 15.4979 43.114C16.7513 43.6464 18.1058 43.9204 19.5588 43.935C21.028 43.935 22.3701 43.6987 23.5845 43.2267C24.7977 42.7542 25.932 42.0381 26.9855 41.0783C27.2253 40.8527 27.5049 40.6839 27.8244 40.5722C28.144 40.4595 28.4795 40.403 28.831 40.403C29.1498 40.403 29.4693 40.4595 29.789 40.5722C30.1085 40.6839 30.3874 40.8461 30.6272 41.0549C30.8824 41.2951 31.0744 41.565 31.2021 41.8652C31.33 42.1656 31.3941 42.4725 31.3941 42.7872C31.3941 43.1021 31.33 43.4103 31.2021 43.7094C31.0744 44.0097 30.8913 44.2721 30.6515 44.4975C29.1022 45.952 27.3735 47.0354 25.4643 47.7486C23.5562 48.4608 21.5799 48.8174 19.5354 48.8174C18.129 48.8174 16.7678 48.6406 15.4501 48.2879C14.1327 47.9361 12.9029 47.4446 11.7607 46.8149C10.6188 46.1853 9.57714 45.4234 8.63453 44.5316C7.6923 43.6386 6.88539 42.6494 6.21491 41.5611C5.54443 40.4741 5.02489 39.308 4.6574 38.0633C4.2901 36.8186 4.10608 35.5295 4.10608 34.1945C4.10608 32.9043 4.28229 31.6477 4.63305 30.4255C4.98381 29.2032 5.48384 28.053 6.1307 26.9725C6.77795 25.8928 7.56441 24.8961 8.4901 23.9809C9.41691 23.0665 10.4558 22.2785 11.6055 21.6189C12.7546 20.9582 14.0088 20.445 15.3661 20.0778C16.7236 19.7105 18.1534 19.5267 19.6549 19.5267C21.6673 19.5267 23.6231 19.8864 25.5234 20.6064C27.4248 21.3264 29.1496 22.4058 30.6989 23.8456H30.6987Z" fill="white"/>
<path d="M36.8793 38.0633C36.8793 38.8578 37.0431 39.612 37.3704 40.3242C37.6981 41.0373 38.1453 41.6591 38.7125 42.1916C39.2787 42.7239 39.9376 43.1436 40.6886 43.4507C41.4392 43.7586 42.2461 43.9124 43.1084 43.9124C43.9709 43.9124 44.7808 43.7587 45.5399 43.4507C46.299 43.1436 46.9578 42.7239 47.5171 42.1916C48.0755 41.6591 48.514 41.0373 48.8345 40.3242C49.1533 39.612 49.3129 38.8578 49.3129 38.0633C49.3129 37.2538 49.1533 36.4921 48.8345 35.7799C48.514 35.0676 48.0753 34.4499 47.5171 33.9241C46.9578 33.3995 46.2989 32.9827 45.5399 32.6757C44.7808 32.3687 43.9709 32.2141 43.1084 32.2141C42.2615 32.2141 41.4596 32.3687 40.7005 32.6757C39.9423 32.9828 39.2787 33.3995 38.7125 33.9241C38.1453 34.4499 37.6981 35.0676 37.3704 35.7799C37.0431 36.4921 36.8793 37.254 36.8793 38.0633ZM31.6804 38.0633C31.6804 36.5786 31.9843 35.1883 32.5914 33.8902C33.1975 32.594 34.0201 31.4572 35.0588 30.4827C36.0969 29.5071 37.3063 28.7384 38.6879 28.1761C40.0696 27.6134 41.5431 27.3326 43.1082 27.3326C44.6899 27.3326 46.1751 27.6134 47.5645 28.1761C48.9542 28.7384 50.1637 29.5071 51.1937 30.4827C52.2238 31.457 53.0347 32.594 53.626 33.8902C54.2167 35.1883 54.5119 36.5786 54.5119 38.0633V46.0265C54.5119 46.3725 54.4436 46.6949 54.3083 46.9943C54.1726 47.2945 53.9845 47.5567 53.7458 47.7812C53.5061 48.0067 53.2226 48.1863 52.8951 48.3216C52.5677 48.4565 52.2199 48.5245 51.8525 48.5245C51.2296 48.5245 50.7024 48.3516 50.2717 48.0067C49.8399 47.6616 49.5524 47.2276 49.4094 46.7018C48.498 47.3468 47.5119 47.8572 46.4505 48.2312C45.3873 48.607 44.2735 48.7936 43.108 48.7936C41.5429 48.7936 40.0694 48.5129 38.6877 47.9504C37.3061 47.3879 36.0965 46.6204 35.0586 45.6449C34.0199 44.6693 33.1973 43.5297 32.5912 42.2259C31.9841 40.9198 31.6802 39.5334 31.6802 38.0635L31.6804 38.0633Z" fill="white"/>
<path d="M61.7231 46.1168C61.7231 46.4473 61.6588 46.7622 61.5322 47.0613C61.4034 47.3615 61.2242 47.6162 60.9921 47.8261C60.7605 48.0369 60.4932 48.2061 60.1902 48.3332C59.8861 48.4605 59.5587 48.5247 59.2067 48.5247C58.8403 48.5247 58.4925 48.4605 58.165 48.3332C57.8376 48.2061 57.554 48.0369 57.3153 47.8261C57.0748 47.6164 56.8837 47.3615 56.7395 47.0613C56.5961 46.7622 56.524 46.4473 56.524 46.1168V38.8502C56.524 37.3062 56.8396 35.851 57.4703 34.4867C58.1007 33.1214 58.9604 31.9295 60.0459 30.9093C61.1324 29.89 62.401 29.0834 63.8552 28.4907C65.3082 27.8988 66.8499 27.6017 68.4792 27.6017H68.527C69.3893 27.6017 70.056 27.8321 70.5278 28.2885C70.9985 28.7463 71.2342 29.3271 71.2342 30.0317C71.2342 30.3767 71.162 30.6993 71.0189 30.9995C70.8756 31.2998 70.6786 31.5581 70.4323 31.7757C70.1836 31.9935 69.8964 32.1655 69.5687 32.2926C69.2413 32.4199 68.8943 32.4841 68.527 32.4841H68.4792C67.5689 32.4841 66.7018 32.6494 65.8793 32.9796C65.0569 33.309 64.3426 33.7588 63.7355 34.3292C63.1282 34.8997 62.641 35.5661 62.2735 36.331C61.9062 37.0964 61.7229 37.9135 61.7229 38.7833V46.1168H61.7231Z" fill="white"/>
<path d="M85.9437 43.6426L99.2399 43.6648C99.607 43.6648 99.9473 43.7289 100.258 43.8562C100.57 43.9847 100.841 44.1594 101.073 44.3848C101.304 44.61 101.488 44.8687 101.623 45.16C101.759 45.4536 101.827 45.7724 101.827 46.1171C101.827 46.8217 101.58 47.3998 101.085 47.8496C100.589 48.2994 99.9746 48.5238 99.24 48.5238H83.3321H83.0572C82.9685 48.5238 82.8849 48.5092 82.8059 48.4791C82.7415 48.4791 82.677 48.4645 82.6138 48.4345C82.0711 48.2992 81.6227 48.0212 81.2731 47.6016C80.9212 47.1818 80.7457 46.6875 80.7457 46.1171V22.1354C80.7457 21.7905 80.8132 21.4727 80.9495 21.1795C81.0837 20.8881 81.2681 20.6365 81.5 20.4254C81.7311 20.2167 82.0067 20.0475 82.3263 19.9194C82.6451 19.793 82.9804 19.7289 83.3321 19.7289C83.6996 19.7289 84.0388 19.793 84.3505 19.9194C84.6621 20.0475 84.9381 20.2167 85.1768 20.4254C85.4166 20.6365 85.6036 20.8881 85.74 21.1795C85.8757 21.4729 85.9439 21.7907 85.9439 22.1354V43.6424L85.9437 43.6426Z" fill="white"/>
<path d="M118.071 36.1959C117.895 35.5817 117.619 35.0259 117.245 34.5313C116.869 34.0359 116.418 33.6172 115.891 33.2712C115.364 32.9263 114.772 32.6639 114.118 32.4841C113.463 32.3045 112.768 32.2143 112.033 32.2143C111.298 32.2143 110.608 32.3084 109.961 32.4949C109.314 32.6835 108.731 32.9534 108.213 33.3051C107.694 33.658 107.25 34.0778 106.883 34.5643C106.516 35.0521 106.244 35.5964 106.068 36.1959H118.071H118.071ZM106.236 40.2454C106.443 40.8003 106.735 41.3066 107.11 41.7633C107.485 42.2218 107.921 42.6114 108.416 42.934C108.911 43.2565 109.454 43.5034 110.045 43.6763C110.636 43.8481 111.258 43.9346 111.914 43.9346C113.559 43.9346 114.852 43.5295 115.795 42.7203C116.114 42.5105 116.426 42.3569 116.73 42.2587C117.034 42.1614 117.32 42.113 117.592 42.113C118.039 42.113 118.438 42.2218 118.79 42.4383C119.141 42.6562 119.429 42.9379 119.653 43.2826C119.812 43.5224 119.928 43.7812 120 44.059C120.071 44.3357 120.088 44.6176 120.048 44.9011C120.008 45.1871 119.912 45.4677 119.76 45.7455C119.608 46.0235 119.381 46.2741 119.077 46.4985C118.725 46.7998 118.327 47.0873 117.88 47.3653C117.432 47.6433 116.917 47.8861 116.334 48.0961C115.751 48.3068 115.096 48.4758 114.369 48.6031C113.643 48.7295 112.825 48.7936 111.914 48.7936C110.333 48.7936 108.848 48.5127 107.458 47.9504C106.068 47.3877 104.854 46.6201 103.816 45.6447C102.778 44.6691 101.955 43.5343 101.349 42.2362C100.741 40.9389 100.438 39.5476 100.438 38.0631C100.438 36.5785 100.741 35.1833 101.349 33.8793C101.955 32.5734 102.778 31.4387 103.816 30.4709C104.854 29.5031 106.068 28.7384 107.458 28.1759C108.848 27.6134 110.333 27.3325 111.914 27.3325C113.48 27.3325 114.952 27.6105 116.334 28.1642C117.716 28.72 118.929 29.473 119.976 30.4262C121.022 31.3784 121.852 32.4984 122.467 33.7888C123.082 35.0791 123.398 36.4589 123.414 37.928C123.414 38.6177 123.178 39.1766 122.707 39.604C122.235 40.0315 121.617 40.2452 120.851 40.2452H106.236L106.236 40.2454Z" fill="white"/>
<path d="M132.373 43.6425C132.74 43.6425 133.084 43.7094 133.403 43.8447C133.723 43.9797 133.995 44.1642 134.218 44.3955C134.441 44.6285 134.617 44.8948 134.745 45.1951C134.873 45.4944 134.936 45.8092 134.936 46.1395C134.936 46.8295 134.697 47.3998 134.218 47.8496C133.739 48.2994 133.124 48.5238 132.373 48.5238C131.287 48.5238 130.269 48.3518 129.318 48.0071C128.368 47.662 127.534 47.182 126.815 46.5669C126.096 45.9519 125.529 45.2097 125.114 44.3401C124.699 43.4704 124.476 42.5094 124.444 41.4601V21.979C124.444 21.6333 124.511 21.3116 124.647 21.0115C124.782 20.7113 124.962 20.4528 125.186 20.2352C125.409 20.0176 125.673 19.8454 125.977 19.7174C126.281 19.591 126.607 19.5269 126.959 19.5269C127.326 19.5269 127.669 19.591 127.989 19.7174C128.309 19.8454 128.592 20.0176 128.84 20.2352C129.087 20.4528 129.283 20.7113 129.426 21.0115C129.571 21.3118 129.642 21.6335 129.642 21.979V41.3027C129.642 42.083 129.897 42.6677 130.409 43.0574C130.919 43.4479 131.574 43.6425 132.373 43.6425Z" fill="white"/>
<path d="M139.632 38.0633C139.632 38.8578 139.796 39.612 140.123 40.3242C140.45 41.0373 140.898 41.6591 141.465 42.1916C142.031 42.7239 142.69 43.1436 143.441 43.4507C144.192 43.7586 144.998 43.9124 145.861 43.9124C146.723 43.9124 147.533 43.7587 148.292 43.4507C149.052 43.1436 149.71 42.7239 150.27 42.1916C150.828 41.6591 151.267 41.0373 151.587 40.3242C151.906 39.612 152.066 38.8578 152.066 38.0633C152.066 37.2538 151.906 36.4921 151.587 35.7799C151.267 35.0676 150.828 34.4499 150.27 33.9241C149.71 33.3995 149.051 32.9827 148.292 32.6757C147.533 32.3687 146.723 32.2141 145.861 32.2141C145.014 32.2141 144.212 32.3687 143.453 32.6757C142.695 32.9828 142.031 33.3995 141.465 33.9241C140.898 34.4499 140.45 35.0676 140.123 35.7799C139.796 36.4921 139.632 37.254 139.632 38.0633ZM134.433 38.0633C134.433 36.5786 134.737 35.1883 135.344 33.8902C135.95 32.594 136.773 31.4572 137.811 30.4827C138.849 29.5071 140.059 28.7384 141.44 28.1761C142.822 27.6134 144.296 27.3326 145.861 27.3326C147.442 27.3326 148.928 27.6134 150.317 28.1761C151.707 28.7384 152.916 29.5071 153.946 30.4827C154.976 31.457 155.787 32.594 156.379 33.8902C156.969 35.1883 157.264 36.5786 157.264 38.0633C157.264 39.5332 156.969 40.9197 156.379 42.2257C155.787 43.5295 154.976 44.6693 153.946 45.6447C152.916 46.6203 151.707 47.3879 150.317 47.9502C148.928 48.5129 147.442 48.7935 145.861 48.7935C144.296 48.7935 142.822 48.5127 141.44 47.9502C140.059 47.3877 138.849 46.6203 137.811 45.6447C136.773 44.6691 135.95 43.5295 135.344 42.2257C134.737 40.9197 134.433 39.5332 134.433 38.0633Z" fill="white"/>
<path d="M69.9886 12.8312C69.7545 12.9626 69.5237 13.0994 69.2965 13.2461C68.9086 13.4956 68.5266 13.7571 68.1515 14.0253C67.9351 14.1797 67.2871 14.8502 67.0405 14.8502C68.9984 15.1085 70.9574 15.3584 72.913 15.5963C83.318 16.8655 93.4967 17.8368 103.165 18.489C109.157 18.8988 113.743 19.0856 118.03 19.0952L118.542 19.0984C120.481 19.0984 122.29 19.068 124.037 19.0031C124.029 19.0118 124.016 19.0203 124.008 19.0292C123.631 19.3917 123.327 19.826 123.107 20.3165C122.872 20.8366 122.752 21.3952 122.752 21.9782V22.9353C120.06 23.1343 117.383 23.2325 114.765 23.2325C114.196 23.2325 113.626 23.2268 113.054 23.2209C110.479 23.1762 107.994 23.0576 105.669 22.87C103.159 22.6682 100.61 22.4388 98.0878 22.1862C94.794 21.8537 91.2934 21.47 87.4771 21.0241C87.4265 20.8366 87.3583 20.6498 87.2747 20.4711C87.0399 19.9659 86.7114 19.5259 86.2913 19.1604C85.9151 18.8272 85.4766 18.56 84.9913 18.3609C84.4747 18.15 83.9176 18.0431 83.3328 18.0431C82.7666 18.0431 82.2179 18.1472 81.6967 18.3552C81.1898 18.5602 80.7426 18.837 80.3617 19.1808C80.0749 19.4434 79.8275 19.7396 79.6278 20.0699C77.5649 19.8145 75.5078 19.5532 73.4476 19.2946L67.7827 18.5804C66.5159 18.4232 65.2519 18.2597 63.9842 18.0779C62.8245 17.9119 61.6676 17.7362 60.508 17.5525C59.0687 17.3262 57.6313 17.0881 56.1978 16.851L55.2935 16.7024L53.52 16.4138C50.4433 15.9086 46.8602 15.3352 43.2915 14.9215C39.3653 14.4638 36.1123 14.2501 33.0562 14.2443L32.7432 14.2412C31.9705 14.2412 31.2015 14.2558 30.4297 14.2859L29.5323 14.3209L28.6349 14.3628C28.0659 14.3813 27.4937 14.4015 26.9208 14.4161L25.7933 14.458C20.4072 14.6571 14.2902 14.8078 9.41095 17.3651C6.52346 18.8887 4.57728 22.0629 3.15937 24.8913C2.57459 26.0659 2.0359 27.3174 1.56116 28.5894C1.34684 29.1752 1.14702 29.7697 0.958904 30.3674C0.926932 30.4744 0.851836 30.5366 0.73882 30.5392C0.652013 30.5392 0.550707 30.4831 0.533234 30.3878C0.423006 29.9128 0.336385 29.4365 0.258501 28.9546C0.213703 28.6963 0.175597 28.4379 0.136562 28.1766L0.107379 27.9833C0.0858164 27.8434 0.0653694 27.7044 0.0467812 27.5645C0.0175978 27.3412 -0.0125151 27.0767 0.0079319 26.8154C0.0237319 26.6482 0.0352565 26.4851 0.0653694 26.3218C0.136562 25.9497 0.249578 25.561 0.407578 25.1355C0.569109 24.7167 0.741794 24.2969 0.915222 23.881C1.06597 23.5304 1.21523 23.1825 1.37026 22.8346C1.80671 21.8572 2.3125 20.9039 2.86419 19.9867C3.42853 19.0479 4.05514 18.1443 4.76372 17.3079C5.52546 16.4072 6.39223 15.5406 7.37257 14.876C8.38805 14.188 9.53698 13.7245 10.6917 13.3251C14.4407 12.027 18.3543 11.4025 22.3039 11.1499C24.8144 10.9896 27.3296 10.9605 29.8427 10.9362L30.2784 10.9293C30.8621 10.9215 31.4469 10.9117 32.0345 10.9117C33.3159 10.9117 34.4913 10.9332 35.6324 10.9808C38.092 11.0846 40.6021 11.2722 43.0922 11.5394C47.5106 12.0117 52.0186 12.6898 55.9985 13.2845C57.6551 13.5312 59.3117 13.7781 60.9696 14.0249C61.1118 14.0464 61.2581 14.0668 61.4003 14.0396C61.5406 14.0125 61.6674 13.9387 61.7919 13.8666C63.5167 12.861 65.277 11.9179 67.0514 11.0035C67.5619 10.7401 68.0747 10.4806 68.5892 10.2251C75.3513 6.86334 82.5587 4.21069 89.924 2.48637C93.7831 1.58269 97.7181 0.974251 101.68 0.792812C105.683 0.609149 109.559 1.03949 113.501 1.70501C115.394 2.02489 117.28 2.38221 119.167 2.73119C123.115 3.45973 127.046 4.27018 130.966 5.12901C132.971 5.56824 134.968 6.04343 136.967 6.50769C137.716 6.68171 138.465 6.85444 139.217 7.02346C139.586 7.10612 139.957 7.18878 140.328 7.27014C140.574 7.32463 140.824 7.37133 141.068 7.43156C141.121 7.44509 141.174 7.45973 141.216 7.49384C141.397 7.64136 141.372 7.90675 141.149 7.99701C141.013 8.05354 140.859 8.03204 140.713 8.0085C139.692 7.85134 138.671 7.69288 137.65 7.53535C136.648 7.38115 135.641 7.18563 134.634 7.08277C134.318 7.04978 134.002 6.98936 133.686 6.94359C131.483 6.62574 128.865 6.23914 126.134 5.78156C125.275 5.63867 124.419 5.493 123.564 5.34418L122.285 5.12456C114.553 3.81001 106.641 1.9415 98.7536 2.89669C95.0417 3.34649 91.3434 4.50259 87.7739 5.6181C84.1011 6.7666 80.4836 8.09264 76.9404 9.59216C75.12 10.3617 73.3199 11.1777 71.5416 12.0376C71.0143 12.2921 70.4949 12.5476 69.9891 12.8314L69.9886 12.8312Z" fill="white"/>
<path d="M157.974 13.8062C157.938 13.8538 157.886 13.8868 157.835 13.92C157.611 14.0607 157.39 14.2067 157.16 14.3359C156.912 14.4758 156.665 14.6157 156.414 14.746C156.057 14.9403 155.702 15.1328 155.338 15.3115C154.561 15.7001 153.752 16.0663 152.935 16.3984C151.388 17.0291 149.769 17.6024 148.117 18.1048C144.895 19.0919 141.621 19.8771 137.698 20.7504C135.531 21.2324 133.405 21.6367 131.374 21.9543C131.36 21.9575 131.348 21.9575 131.332 21.9612C131.329 21.3692 131.202 20.804 130.951 20.2869C130.713 19.7819 130.378 19.3385 129.956 18.9677C129.838 18.8665 129.717 18.7686 129.589 18.6791C130.602 18.6022 131.603 18.5092 132.591 18.4119C134.886 18.1678 137.021 17.8854 139.12 17.5432C141.103 17.2226 143.231 16.8156 145.452 16.3306C147.445 15.8916 149.427 15.4116 151.405 14.9112C153.334 14.4226 155.259 13.9191 157.181 13.4052C157.298 13.3733 157.416 13.3421 157.534 13.3099C157.589 13.2956 157.646 13.281 157.703 13.2895C157.861 13.314 158.074 13.6646 157.974 13.8064L157.974 13.8062Z" fill="white"/>
<path d="M4.74923 56.5786H7.48796C8.10556 56.5786 8.57636 56.6259 8.90035 56.7203C9.33571 56.8486 9.70864 57.0764 10.0191 57.4038C10.3296 57.7311 10.5659 58.1327 10.7279 58.6086C10.8899 59.0811 10.9708 59.6649 10.9708 60.3602C10.9708 60.971 10.8949 61.4975 10.743 61.9396C10.5574 62.4796 10.2925 62.9167 9.94826 63.2508C9.68839 63.5039 9.3374 63.7013 8.89529 63.8431C8.56455 63.9477 8.12244 64 7.56895 64H4.74923V56.5786ZM6.24768 57.8341V62.7496H7.36646C7.78495 62.7496 8.087 62.726 8.27262 62.6787C8.51561 62.618 8.71642 62.515 8.87504 62.3699C9.03703 62.2248 9.16865 61.9869 9.2699 61.6561C9.37115 61.322 9.42177 60.8681 9.42177 60.2944C9.42177 59.7206 9.37115 59.2802 9.2699 58.9731C9.16865 58.666 9.02691 58.4264 8.84466 58.2542C8.66242 58.0821 8.43124 57.9657 8.15112 57.9049C7.94188 57.8577 7.53183 57.8341 6.92097 57.8341H6.24768ZM12.2466 64V56.5786H17.7493V57.8341H13.745V59.4793H17.4709V60.7297H13.745V62.7496H17.8911V64H12.2466ZM25.8541 64H24.2241L23.5761 62.3142H20.6096L19.997 64H18.4074L21.298 56.5786H22.8825L25.8541 64ZM23.0952 61.0638L22.0726 58.3099L21.0702 61.0638H23.0952ZM26.6945 64V56.6393H28.193V62.7496H31.9188V64H26.6945ZM41.9929 64H40.3628L39.7148 62.3142H36.7483L36.1358 64H34.5462L37.4368 56.5786H39.0213L41.9929 64ZM39.2339 61.0638L38.2113 58.3099L37.209 61.0638H39.2339ZM47.5412 61.2714L48.9941 61.7321C48.7714 62.542 48.4001 63.1445 47.8804 63.5393C47.3641 63.9308 46.7076 64.1266 45.9112 64.1266C44.9257 64.1266 44.1157 63.7908 43.4812 63.1192C42.8468 62.4442 42.5295 61.5228 42.5295 60.3551C42.5295 59.1199 42.8484 58.1614 43.4863 57.4797C44.1241 56.7946 44.9628 56.452 46.0023 56.452C46.9101 56.452 47.6475 56.7203 48.2145 57.257C48.552 57.5742 48.8051 58.0298 48.9739 58.6238L47.4906 58.9782C47.4029 58.5934 47.2189 58.2897 46.9388 58.0669C46.6621 57.8442 46.3246 57.7328 45.9263 57.7328C45.3762 57.7328 44.9291 57.9302 44.5848 58.3251C44.244 58.72 44.0735 59.3595 44.0735 60.2437C44.0735 61.182 44.2423 61.8502 44.5798 62.2484C44.9173 62.6467 45.356 62.8458 45.896 62.8458C46.2942 62.8458 46.6368 62.7192 46.9236 62.4661C47.2105 62.213 47.4164 61.8148 47.5412 61.2714ZM50.2901 64V56.5786H51.7885V59.4996H54.7247V56.5786H56.2232V64H54.7247V60.755H51.7885V64H50.2901ZM57.7824 64V56.5786H59.2808V59.4996H62.217V56.5786H63.7154V64H62.217V60.755H59.2808V64H57.7824ZM65.224 64V56.5786H66.7225V64H65.224ZM72.7112 64V57.8341H70.5091V56.5786H76.4067V57.8341H74.2097V64H72.7112ZM76.8826 60.3349C76.8826 59.5789 76.9956 58.9444 77.2218 58.4314C77.3905 58.0534 77.62 57.7143 77.9102 57.4139C78.2039 57.1135 78.5245 56.8908 78.8721 56.7457C79.3344 56.5499 79.8677 56.452 80.4718 56.452C81.5653 56.452 82.4394 56.7912 83.0941 57.4696C83.7522 58.1479 84.0812 59.0912 84.0812 60.2994C84.0812 61.4975 83.7556 62.4357 83.1042 63.1141C82.4529 63.7891 81.5821 64.1266 80.492 64.1266C79.3884 64.1266 78.511 63.7908 77.8596 63.1192C77.2083 62.4442 76.8826 61.5161 76.8826 60.3349ZM78.4266 60.2842C78.4266 61.1246 78.6207 61.7624 79.0088 62.1978C79.3969 62.6298 79.8896 62.8458 80.487 62.8458C81.0843 62.8458 81.5737 62.6315 81.9551 62.2029C82.3398 61.7709 82.5322 61.1246 82.5322 60.264C82.5322 59.4135 82.3449 58.779 81.9702 58.3605C81.599 57.9421 81.1046 57.7328 80.487 57.7328C79.8694 57.7328 79.3716 57.9454 78.9936 58.3707C78.6156 58.7925 78.4266 59.4304 78.4266 60.2842ZM85.2608 64V56.5786H86.7592V59.4996H89.6954V56.5786H91.1938V64H89.6954V60.755H86.7592V64H85.2608ZM95.6436 64V56.5786H100.731V57.8341H97.1421V59.5907H100.24V60.8462H97.1421V64H95.6436ZM101.972 64V56.5786H107.474V57.8341H103.47V59.4793H107.196V60.7297H103.47V62.7496H107.616V64H101.972ZM108.887 64V56.5786H114.39V57.8341H110.385V59.4793H114.111V60.7297H110.385V62.7496H114.531V64H108.887ZM115.842 64V56.6393H117.341V62.7496H121.067V64H115.842ZM131.141 64H129.511L128.863 62.3142H125.896L125.284 64H123.694L126.585 56.5786H128.169L131.141 64ZM128.382 61.0638L127.359 58.3099L126.357 61.0638H128.382ZM136.689 61.2714L138.142 61.7321C137.919 62.542 137.548 63.1445 137.028 63.5393C136.512 63.9308 135.856 64.1266 135.059 64.1266C134.074 64.1266 133.264 63.7908 132.629 63.1192C131.995 62.4442 131.677 61.5228 131.677 60.3551C131.677 59.1199 131.996 58.1614 132.634 57.4797C133.272 56.7946 134.111 56.452 135.15 56.452C136.058 56.452 136.795 56.7203 137.362 57.257C137.7 57.5742 137.953 58.0298 138.122 58.6238L136.639 58.9782C136.551 58.5934 136.367 58.2897 136.087 58.0669C135.81 57.8442 135.472 57.7328 135.074 57.7328C134.524 57.7328 134.077 57.9302 133.733 58.3251C133.392 58.72 133.221 59.3595 133.221 60.2437C133.221 61.182 133.39 61.8502 133.728 62.2484C134.065 62.6467 134.504 62.8458 135.044 62.8458C135.442 62.8458 135.785 62.7192 136.072 62.4661C136.358 62.213 136.564 61.8148 136.689 61.2714ZM139.438 64V56.5786H140.936V59.4996H143.873V56.5786H145.371V64H143.873V60.755H140.936V64H139.438ZM146.93 64V56.5786H148.429V59.4996H151.365V56.5786H152.863V64H151.365V60.755H148.429V64H146.93ZM154.372 64V56.5786H155.87V64H154.372Z" fill="white"/>
</svg>
