<svg width="21" height="21" viewBox="0 0 21 21" fill="none" xmlns="http://www.w3.org/2000/svg">
<path d="M10.5226 0.328125C4.77914 0.328125 0.328125 4.52566 0.328125 10.1953C0.328125 13.1607 1.5467 15.7233 3.53021 17.4936C3.8727 17.8016 3.80215 17.98 3.86039 19.8819C3.86498 20.0151 3.90209 20.1452 3.96849 20.2608C4.03489 20.3764 4.12856 20.474 4.24133 20.545C4.3541 20.6161 4.48255 20.6585 4.61547 20.6685C4.74839 20.6785 4.88175 20.6559 5.00391 20.6026C7.17404 19.6469 7.20193 19.5714 7.56984 19.6715C13.8571 21.402 20.6719 17.3783 20.6719 10.1953C20.6719 4.52566 16.2664 0.328125 10.5226 0.328125ZM16.6437 7.92135L13.6496 12.6615C13.5365 12.8398 13.3879 12.9927 13.2129 13.1108C13.038 13.229 12.8405 13.3097 12.6329 13.3479C12.4253 13.3861 12.2121 13.3811 12.0065 13.3331C11.801 13.285 11.6076 13.1951 11.4384 13.0688L9.05625 11.2859C8.94976 11.206 8.82023 11.1628 8.68711 11.1628C8.55399 11.1628 8.42446 11.206 8.31797 11.2859L5.10357 13.7238C4.67455 14.0491 4.11264 13.5352 4.4018 13.0811L7.39594 8.34094C7.50896 8.16264 7.65761 8.00963 7.83255 7.89148C8.00749 7.77334 8.20496 7.69262 8.41256 7.65438C8.62017 7.61614 8.83344 7.6212 9.03899 7.66926C9.24455 7.71732 9.43796 7.80733 9.60709 7.93365L11.9885 9.71619C12.095 9.79606 12.2245 9.83924 12.3576 9.83924C12.4907 9.83924 12.6202 9.79606 12.7267 9.71619L15.9428 7.28068C16.371 6.95338 16.9329 7.46689 16.6437 7.92135Z" fill="white"/>
</svg>
