<svg width="17" height="17" viewBox="0 0 17 17" fill="none" xmlns="http://www.w3.org/2000/svg">
<g clip-path="url(#clip0_3_22)">
<path d="M9.29688 -0.000227907C13.5502 -0.000227907 17 3.44958 17 7.7029C17 8.1445 16.6447 8.49977 16.2031 8.49977C15.7615 8.49977 15.4062 8.1445 15.4062 7.7029C15.4062 4.32946 12.6703 1.59352 9.29688 1.59352C8.85527 1.59352 8.5 1.23825 8.5 0.796647C8.5 0.355046 8.85527 -0.000227907 9.29688 -0.000227907ZM9.5625 6.37477C9.84429 6.37477 10.1145 6.48671 10.3138 6.68597C10.5131 6.88523 10.625 7.15548 10.625 7.43727C10.625 7.71906 10.5131 7.98932 10.3138 8.18857C10.1145 8.38783 9.84429 8.49977 9.5625 8.49977C9.28071 8.49977 9.01046 8.38783 8.8112 8.18857C8.61194 7.98932 8.5 7.71906 8.5 7.43727C8.5 7.15548 8.61194 6.88523 8.8112 6.68597C9.01046 6.48671 9.28071 6.37477 9.5625 6.37477ZM8.5 3.98415C8.5 3.54255 8.85527 3.18727 9.29688 3.18727C11.7904 3.18727 13.8125 5.20934 13.8125 7.7029C13.8125 8.1445 13.4572 8.49977 13.0156 8.49977C12.574 8.49977 12.2188 8.1445 12.2188 7.7029C12.2188 6.08923 10.9105 4.78102 9.29688 4.78102C8.85527 4.78102 8.5 4.42575 8.5 3.98415ZM3.90137 0.0462565C4.54551 -0.12972 5.21953 0.198991 5.47519 0.816569L6.80332 4.00407C7.0291 4.54528 6.87305 5.17282 6.41816 5.54137L4.78125 6.88278C5.88691 9.22028 7.77949 11.1129 10.117 12.2185L11.4551 10.5816C11.827 10.1267 12.4512 9.97067 12.9924 10.1965L16.1799 11.5246C16.7975 11.7802 17.1262 12.4543 16.9502 13.0984L16.1533 16.0203C15.9973 16.598 15.4727 16.9998 14.875 16.9998C6.66055 16.9998 0 10.3392 0 2.12477C0 1.52712 0.401758 1.00251 0.979492 0.843131L3.90137 0.0462565Z" fill="white"/>
</g>
<defs>
<clipPath id="clip0_3_22">
<rect width="17" height="17" fill="white"/>
</clipPath>
</defs>
</svg>
