<svg width="12" height="10" viewBox="0 0 12 10" fill="none" xmlns="http://www.w3.org/2000/svg">
<path d="M6.60208 0.351562C6.49167 0.136719 6.25833 0 6.00208 0C5.74583 0 5.51458 0.136719 5.40208 0.351562L4.0625 2.93555L1.07083 3.34961C0.820833 3.38477 0.6125 3.54883 0.535417 3.77344C0.458333 3.99805 0.520833 4.24609 0.7 4.41211L2.87083 6.42578L2.35833 9.27148C2.31667 9.50586 2.42083 9.74414 2.62708 9.88281C2.83333 10.0215 3.10625 10.0391 3.33125 9.92773L6.00417 8.58984L8.67708 9.92773C8.90208 10.0391 9.175 10.0234 9.38125 9.88281C9.5875 9.74219 9.69167 9.50586 9.65 9.27148L9.13542 6.42578L11.3063 4.41211C11.4854 4.24609 11.55 3.99805 11.4708 3.77344C11.3917 3.54883 11.1854 3.38477 10.9354 3.34961L7.94167 2.93555L6.60208 0.351562Z" fill="black"/>
</svg>
